<mxfile host="app.diagrams.net" agent="Mozilla/5.0 (X11; Linux x86_64) AppleWebKit/537.36 (KHTML, like Gecko) Chrome/136.0.0.0 Safari/537.36" version="27.2.0">
  <diagram name="Page-1" id="tldKDSetQMj4G0KivhV6">
    <mxGraphModel grid="1" page="1" gridSize="10" guides="1" tooltips="1" connect="1" arrows="1" fold="1" pageScale="1" pageWidth="850" pageHeight="1100" math="0" shadow="0">
      <root>
        <mxCell id="0" />
        <mxCell id="1" parent="0" />
        <mxCell id="54eO3ysuZf2-Csm8CH84-7" value="&lt;b&gt;Overlay&lt;/b&gt;" style="rounded=0;whiteSpace=wrap;html=1;strokeColor=none;fillColor=none;fontColor=#808080;" vertex="1" parent="1">
          <mxGeometry x="30" y="235" width="80" height="20" as="geometry" />
        </mxCell>
        <mxCell id="54eO3ysuZf2-Csm8CH84-6" value="" style="rounded=0;whiteSpace=wrap;html=1;dashed=1;fillStyle=auto;fillColor=none;" vertex="1" parent="1">
          <mxGeometry x="110" y="210" width="220" height="70" as="geometry" />
        </mxCell>
        <mxCell id="54eO3ysuZf2-Csm8CH84-1" value="" style="rounded=0;whiteSpace=wrap;html=1;" vertex="1" parent="1">
          <mxGeometry x="120" y="220" width="80" height="50" as="geometry" />
        </mxCell>
        <mxCell id="yVKAf2mZOe0JGGy7InLV-17" value="" style="rounded=0;whiteSpace=wrap;html=1;" vertex="1" parent="1">
          <mxGeometry x="150" y="440" width="140" height="50" as="geometry" />
        </mxCell>
        <mxCell id="yVKAf2mZOe0JGGy7InLV-1" value="" style="rounded=0;whiteSpace=wrap;html=1;" vertex="1" parent="1">
          <mxGeometry x="120" y="120" width="80" height="50" as="geometry" />
        </mxCell>
        <mxCell id="yVKAf2mZOe0JGGy7InLV-2" value="" style="rounded=0;whiteSpace=wrap;html=1;" vertex="1" parent="1">
          <mxGeometry x="240" y="120" width="80" height="50" as="geometry" />
        </mxCell>
        <mxCell id="yVKAf2mZOe0JGGy7InLV-3" value="" style="rounded=0;whiteSpace=wrap;html=1;" vertex="1" parent="1">
          <mxGeometry x="150" y="320" width="140" height="70" as="geometry" />
        </mxCell>
        <mxCell id="yVKAf2mZOe0JGGy7InLV-4" value="&lt;b&gt;Part 1&lt;/b&gt;" style="rounded=0;whiteSpace=wrap;html=1;strokeColor=none;fillColor=none;fontColor=#808080;" vertex="1" parent="1">
          <mxGeometry x="120" y="80" width="80" height="20" as="geometry" />
        </mxCell>
        <mxCell id="yVKAf2mZOe0JGGy7InLV-5" value="&lt;b&gt;Part 2&lt;/b&gt;" style="rounded=0;whiteSpace=wrap;html=1;strokeColor=none;fillColor=none;fontColor=#808080;" vertex="1" parent="1">
          <mxGeometry x="240" y="80" width="80" height="20" as="geometry" />
        </mxCell>
        <mxCell id="yVKAf2mZOe0JGGy7InLV-23" style="rounded=0;orthogonalLoop=1;jettySize=auto;html=1;exitX=0.5;exitY=1;exitDx=0;exitDy=0;strokeColor=#666666;endArrow=blockThin;endFill=1;edgeStyle=orthogonalEdgeStyle;curved=1;entryX=0.5;entryY=0;entryDx=0;entryDy=0;" edge="1" parent="1" source="yVKAf2mZOe0JGGy7InLV-6" target="yVKAf2mZOe0JGGy7InLV-10">
          <mxGeometry relative="1" as="geometry">
            <Array as="points">
              <mxPoint x="100" y="150" />
              <mxPoint x="100" y="320" />
              <mxPoint x="170" y="320" />
            </Array>
          </mxGeometry>
        </mxCell>
        <mxCell id="yVKAf2mZOe0JGGy7InLV-6" value="&lt;b&gt;&lt;font style=&quot;color: rgb(255, 255, 255);&quot;&gt;A&lt;/font&gt;&lt;/b&gt;" style="ellipse;whiteSpace=wrap;html=1;strokeColor=#009900;fillColor=#009900;" vertex="1" parent="1">
          <mxGeometry x="130" y="130" width="20" height="20" as="geometry" />
        </mxCell>
        <mxCell id="yVKAf2mZOe0JGGy7InLV-7" value="&lt;b&gt;&lt;font style=&quot;color: rgb(255, 255, 255);&quot;&gt;B&lt;/font&gt;&lt;/b&gt;" style="ellipse;whiteSpace=wrap;html=1;strokeColor=#009900;fillColor=#009900;" vertex="1" parent="1">
          <mxGeometry x="170" y="140" width="20" height="20" as="geometry" />
        </mxCell>
        <mxCell id="yVKAf2mZOe0JGGy7InLV-25" style="rounded=0;orthogonalLoop=1;jettySize=auto;html=1;endArrow=blockThin;endFill=1;strokeColor=#666666;edgeStyle=orthogonalEdgeStyle;curved=1;entryX=0.5;entryY=0;entryDx=0;entryDy=0;exitX=0.117;exitY=0.65;exitDx=0;exitDy=0;exitPerimeter=0;" edge="1" parent="1" source="yVKAf2mZOe0JGGy7InLV-8" target="yVKAf2mZOe0JGGy7InLV-13">
          <mxGeometry relative="1" as="geometry">
            <Array as="points">
              <mxPoint x="230" y="143" />
            </Array>
          </mxGeometry>
        </mxCell>
        <mxCell id="yVKAf2mZOe0JGGy7InLV-8" value="&lt;b&gt;&lt;font style=&quot;color: rgb(255, 255, 255);&quot;&gt;C&lt;/font&gt;&lt;/b&gt;" style="ellipse;whiteSpace=wrap;html=1;fillColor=#0066CC;strokeColor=#0066CC;" vertex="1" parent="1">
          <mxGeometry x="250" y="130" width="20" height="20" as="geometry" />
        </mxCell>
        <mxCell id="yVKAf2mZOe0JGGy7InLV-9" value="&lt;b&gt;&lt;font style=&quot;color: rgb(255, 255, 255);&quot;&gt;D&lt;/font&gt;&lt;/b&gt;" style="ellipse;whiteSpace=wrap;html=1;strokeColor=#0066CC;fillColor=#0066CC;" vertex="1" parent="1">
          <mxGeometry x="290" y="140" width="20" height="20" as="geometry" />
        </mxCell>
        <mxCell id="yVKAf2mZOe0JGGy7InLV-27" style="rounded=0;orthogonalLoop=1;jettySize=auto;html=1;exitX=0.5;exitY=1;exitDx=0;exitDy=0;entryX=0.5;entryY=0;entryDx=0;entryDy=0;endArrow=blockThin;endFill=1;strokeColor=#666666;" edge="1" parent="1" source="yVKAf2mZOe0JGGy7InLV-10" target="yVKAf2mZOe0JGGy7InLV-18">
          <mxGeometry relative="1" as="geometry" />
        </mxCell>
        <mxCell id="yVKAf2mZOe0JGGy7InLV-10" value="&lt;b&gt;&lt;font style=&quot;color: rgb(255, 255, 255);&quot;&gt;A&lt;/font&gt;&lt;/b&gt;" style="ellipse;whiteSpace=wrap;html=1;strokeColor=#009900;fillColor=#009900;" vertex="1" parent="1">
          <mxGeometry x="160" y="360" width="20" height="20" as="geometry" />
        </mxCell>
        <mxCell id="yVKAf2mZOe0JGGy7InLV-28" style="rounded=0;orthogonalLoop=1;jettySize=auto;html=1;exitX=0.5;exitY=1;exitDx=0;exitDy=0;entryX=0.5;entryY=0;entryDx=0;entryDy=0;endArrow=blockThin;endFill=1;strokeColor=#666666;" edge="1" parent="1" source="yVKAf2mZOe0JGGy7InLV-11" target="yVKAf2mZOe0JGGy7InLV-19">
          <mxGeometry relative="1" as="geometry" />
        </mxCell>
        <mxCell id="yVKAf2mZOe0JGGy7InLV-11" value="&lt;b&gt;&lt;font style=&quot;color: rgb(255, 255, 255);&quot;&gt;B&lt;/font&gt;&lt;/b&gt;" style="ellipse;whiteSpace=wrap;html=1;strokeColor=#009900;fillColor=#009900;" vertex="1" parent="1">
          <mxGeometry x="200" y="360" width="20" height="20" as="geometry" />
        </mxCell>
        <mxCell id="yVKAf2mZOe0JGGy7InLV-29" style="rounded=0;orthogonalLoop=1;jettySize=auto;html=1;exitX=0.5;exitY=1;exitDx=0;exitDy=0;endArrow=blockThin;endFill=1;strokeColor=#666666;" edge="1" parent="1" source="yVKAf2mZOe0JGGy7InLV-13" target="yVKAf2mZOe0JGGy7InLV-20">
          <mxGeometry relative="1" as="geometry" />
        </mxCell>
        <mxCell id="yVKAf2mZOe0JGGy7InLV-13" value="&lt;b&gt;&lt;font style=&quot;color: rgb(255, 255, 255);&quot;&gt;C&lt;/font&gt;&lt;/b&gt;" style="ellipse;whiteSpace=wrap;html=1;fillColor=#0066CC;strokeColor=#0066CC;" vertex="1" parent="1">
          <mxGeometry x="220" y="340" width="20" height="20" as="geometry" />
        </mxCell>
        <mxCell id="yVKAf2mZOe0JGGy7InLV-15" value="&lt;b&gt;Build&lt;/b&gt;" style="rounded=0;whiteSpace=wrap;html=1;strokeColor=none;fillColor=none;fontColor=#808080;" vertex="1" parent="1">
          <mxGeometry x="30" y="135" width="80" height="20" as="geometry" />
        </mxCell>
        <mxCell id="yVKAf2mZOe0JGGy7InLV-16" value="&lt;b&gt;Stage&lt;/b&gt;" style="rounded=0;whiteSpace=wrap;html=1;strokeColor=none;fillColor=none;fontColor=#808080;" vertex="1" parent="1">
          <mxGeometry x="30" y="345" width="80" height="20" as="geometry" />
        </mxCell>
        <mxCell id="yVKAf2mZOe0JGGy7InLV-18" value="&lt;b&gt;&lt;font style=&quot;color: rgb(255, 255, 255);&quot;&gt;A&lt;/font&gt;&lt;/b&gt;" style="ellipse;whiteSpace=wrap;html=1;strokeColor=#009900;fillColor=#009900;" vertex="1" parent="1">
          <mxGeometry x="160" y="465" width="20" height="20" as="geometry" />
        </mxCell>
        <mxCell id="yVKAf2mZOe0JGGy7InLV-19" value="&lt;b&gt;&lt;font style=&quot;color: rgb(255, 255, 255);&quot;&gt;B&lt;/font&gt;&lt;/b&gt;" style="ellipse;whiteSpace=wrap;html=1;strokeColor=#009900;fillColor=#009900;" vertex="1" parent="1">
          <mxGeometry x="200" y="465" width="20" height="20" as="geometry" />
        </mxCell>
        <mxCell id="yVKAf2mZOe0JGGy7InLV-20" value="&lt;b&gt;&lt;font style=&quot;color: rgb(255, 255, 255);&quot;&gt;C&lt;/font&gt;&lt;/b&gt;" style="ellipse;whiteSpace=wrap;html=1;fillColor=#0066CC;strokeColor=#0066CC;" vertex="1" parent="1">
          <mxGeometry x="220" y="445" width="20" height="20" as="geometry" />
        </mxCell>
        <mxCell id="yVKAf2mZOe0JGGy7InLV-22" value="&lt;b&gt;Prime&lt;/b&gt;" style="rounded=0;whiteSpace=wrap;html=1;strokeColor=none;fillColor=none;fontColor=#808080;" vertex="1" parent="1">
          <mxGeometry x="30" y="455" width="80" height="20" as="geometry" />
        </mxCell>
        <mxCell id="yVKAf2mZOe0JGGy7InLV-30" value="Stage migration" style="rounded=0;whiteSpace=wrap;html=1;strokeColor=none;fillColor=none;fontColor=#808080;" vertex="1" parent="1">
          <mxGeometry x="330" y="300" width="100" height="20" as="geometry" />
        </mxCell>
        <mxCell id="yVKAf2mZOe0JGGy7InLV-31" value="Prime migration" style="rounded=0;whiteSpace=wrap;html=1;strokeColor=none;fillColor=none;fontColor=#808080;" vertex="1" parent="1">
          <mxGeometry x="330" y="400" width="100" height="20" as="geometry" />
        </mxCell>
        <mxCell id="izR9H2TS-rFpTbOR_gzO-13" style="rounded=0;orthogonalLoop=1;jettySize=auto;html=1;exitX=1;exitY=1;exitDx=0;exitDy=0;entryX=0.5;entryY=0;entryDx=0;entryDy=0;endArrow=blockThin;endFill=1;strokeColor=#666666;edgeStyle=orthogonalEdgeStyle;curved=1;" edge="1" parent="1" source="yVKAf2mZOe0JGGy7InLV-7" target="yVKAf2mZOe0JGGy7InLV-11">
          <mxGeometry relative="1" as="geometry">
            <mxPoint x="200" y="165" as="sourcePoint" />
            <Array as="points">
              <mxPoint x="210" y="157" />
            </Array>
          </mxGeometry>
        </mxCell>
        <mxCell id="izR9H2TS-rFpTbOR_gzO-15" style="rounded=0;orthogonalLoop=1;jettySize=auto;html=1;entryX=1;entryY=0.5;entryDx=0;entryDy=0;strokeColor=#666666;endArrow=blockThin;endFill=1;exitX=0.5;exitY=1;exitDx=0;exitDy=0;edgeStyle=orthogonalEdgeStyle;curved=1;" edge="1" parent="1" source="yVKAf2mZOe0JGGy7InLV-9" target="izR9H2TS-rFpTbOR_gzO-12">
          <mxGeometry relative="1" as="geometry">
            <mxPoint x="270" y="170" as="sourcePoint" />
            <Array as="points">
              <mxPoint x="340" y="160" />
              <mxPoint x="340" y="340" />
            </Array>
          </mxGeometry>
        </mxCell>
        <mxCell id="izR9H2TS-rFpTbOR_gzO-12" value="&lt;b&gt;&lt;font style=&quot;color: rgb(255, 255, 255);&quot;&gt;D&lt;/font&gt;&lt;/b&gt;" style="ellipse;whiteSpace=wrap;html=1;strokeColor=#0066CC;fillColor=#0066CC;" vertex="1" parent="1">
          <mxGeometry x="260" y="330" width="20" height="20" as="geometry" />
        </mxCell>
        <mxCell id="54eO3ysuZf2-Csm8CH84-15" style="rounded=0;orthogonalLoop=1;jettySize=auto;html=1;exitX=0.5;exitY=1;exitDx=0;exitDy=0;strokeColor=#666666;endArrow=blockThin;endFill=1;entryX=0.5;entryY=0;entryDx=0;entryDy=0;" edge="1" parent="1" source="btJZjc-iXWuOTI4wWipZ-2" target="btJZjc-iXWuOTI4wWipZ-4">
          <mxGeometry relative="1" as="geometry">
            <mxPoint x="140" y="260" as="sourcePoint" />
            <mxPoint x="184.70001059995332" y="331.5200169599252" as="targetPoint" />
          </mxGeometry>
        </mxCell>
        <mxCell id="54eO3ysuZf2-Csm8CH84-4" value="" style="rounded=0;whiteSpace=wrap;html=1;" vertex="1" parent="1">
          <mxGeometry x="240" y="220" width="80" height="50" as="geometry" />
        </mxCell>
        <mxCell id="54eO3ysuZf2-Csm8CH84-12" style="edgeStyle=orthogonalEdgeStyle;rounded=0;orthogonalLoop=1;jettySize=auto;html=1;exitX=1;exitY=0.5;exitDx=0;exitDy=0;entryX=1;entryY=0.5;entryDx=0;entryDy=0;endArrow=blockThin;endFill=1;strokeColor=#666666;curved=1;" edge="1" parent="1" source="btJZjc-iXWuOTI4wWipZ-6" target="btJZjc-iXWuOTI4wWipZ-8">
          <mxGeometry relative="1" as="geometry">
            <mxPoint x="290" y="245" as="sourcePoint" />
            <mxPoint x="270" y="375" as="targetPoint" />
          </mxGeometry>
        </mxCell>
        <mxCell id="54eO3ysuZf2-Csm8CH84-17" style="edgeStyle=orthogonalEdgeStyle;rounded=0;orthogonalLoop=1;jettySize=auto;html=1;exitX=0.5;exitY=1;exitDx=0;exitDy=0;strokeColor=#666666;endArrow=blockThin;endFill=1;" edge="1" parent="1">
          <mxGeometry relative="1" as="geometry">
            <mxPoint x="190" y="350" as="sourcePoint" />
            <mxPoint x="190" y="445" as="targetPoint" />
          </mxGeometry>
        </mxCell>
        <mxCell id="54eO3ysuZf2-Csm8CH84-14" style="rounded=0;orthogonalLoop=1;jettySize=auto;html=1;exitX=0.5;exitY=1;exitDx=0;exitDy=0;endArrow=blockThin;endFill=1;strokeColor=#666666;" edge="1" parent="1" source="btJZjc-iXWuOTI4wWipZ-8">
          <mxGeometry relative="1" as="geometry">
            <mxPoint x="260" y="385" as="sourcePoint" />
            <mxPoint x="260" y="455" as="targetPoint" />
          </mxGeometry>
        </mxCell>
        <mxCell id="btJZjc-iXWuOTI4wWipZ-2" value="&lt;b&gt;E&lt;/b&gt;" style="whiteSpace=wrap;html=1;aspect=fixed;strokeColor=#009900;fillColor=#009900;fontColor=#FFFFFF;" vertex="1" parent="1">
          <mxGeometry x="130" y="240" width="20" height="20" as="geometry" />
        </mxCell>
        <mxCell id="btJZjc-iXWuOTI4wWipZ-3" value="&lt;b&gt;F&lt;/b&gt;" style="whiteSpace=wrap;html=1;aspect=fixed;strokeColor=#009900;fillColor=#009900;fontColor=#FFFFFF;" vertex="1" parent="1">
          <mxGeometry x="170" y="235" width="20" height="20" as="geometry" />
        </mxCell>
        <mxCell id="btJZjc-iXWuOTI4wWipZ-4" value="&lt;b&gt;E&lt;/b&gt;" style="whiteSpace=wrap;html=1;aspect=fixed;strokeColor=#009900;fillColor=#009900;fontColor=#FFFFFF;" vertex="1" parent="1">
          <mxGeometry x="180" y="330" width="20" height="20" as="geometry" />
        </mxCell>
        <mxCell id="btJZjc-iXWuOTI4wWipZ-5" value="&lt;b&gt;E&lt;/b&gt;" style="whiteSpace=wrap;html=1;aspect=fixed;strokeColor=#009900;fillColor=#009900;fontColor=#FFFFFF;" vertex="1" parent="1">
          <mxGeometry x="180" y="445" width="20" height="20" as="geometry" />
        </mxCell>
        <mxCell id="btJZjc-iXWuOTI4wWipZ-7" value="" style="edgeStyle=orthogonalEdgeStyle;rounded=0;orthogonalLoop=1;jettySize=auto;html=1;exitX=1;exitY=0.5;exitDx=0;exitDy=0;entryX=1;entryY=0.5;entryDx=0;entryDy=0;endArrow=blockThin;endFill=1;strokeColor=#666666;curved=1;" edge="1" parent="1" target="btJZjc-iXWuOTI4wWipZ-6">
          <mxGeometry relative="1" as="geometry">
            <mxPoint x="290" y="245" as="sourcePoint" />
            <mxPoint x="270" y="375" as="targetPoint" />
          </mxGeometry>
        </mxCell>
        <mxCell id="btJZjc-iXWuOTI4wWipZ-6" value="&lt;b&gt;G&lt;/b&gt;" style="whiteSpace=wrap;html=1;aspect=fixed;strokeColor=#0066CC;fillColor=#0066CC;fontColor=#FFFFFF;" vertex="1" parent="1">
          <mxGeometry x="270" y="235" width="20" height="20" as="geometry" />
        </mxCell>
        <mxCell id="btJZjc-iXWuOTI4wWipZ-8" value="&lt;b&gt;G&lt;/b&gt;" style="whiteSpace=wrap;html=1;aspect=fixed;strokeColor=#0066CC;fillColor=#0066CC;fontColor=#FFFFFF;" vertex="1" parent="1">
          <mxGeometry x="250" y="360" width="20" height="20" as="geometry" />
        </mxCell>
        <mxCell id="btJZjc-iXWuOTI4wWipZ-9" value="&lt;b&gt;G&lt;/b&gt;" style="whiteSpace=wrap;html=1;aspect=fixed;strokeColor=#0066CC;fillColor=#0066CC;fontColor=#FFFFFF;" vertex="1" parent="1">
          <mxGeometry x="250" y="455" width="20" height="20" as="geometry" />
        </mxCell>
        <mxCell id="TU7_M1n6wgSG-8TS7Qtt-2" value="" style="ellipse;whiteSpace=wrap;html=1;strokeColor=#FF0000;fillColor=none;" vertex="1" parent="1">
          <mxGeometry x="90" y="184" width="120" height="10" as="geometry" />
        </mxCell>
        <mxCell id="TU7_M1n6wgSG-8TS7Qtt-6" value="" style="ellipse;whiteSpace=wrap;html=1;strokeColor=#FF0000;fillColor=none;" vertex="1" parent="1">
          <mxGeometry x="230" y="184" width="110" height="10" as="geometry" />
        </mxCell>
        <mxCell id="TU7_M1n6wgSG-8TS7Qtt-7" value="" style="ellipse;whiteSpace=wrap;html=1;strokeColor=#FF0000;fillColor=none;" vertex="1" parent="1">
          <mxGeometry x="146" y="290" width="40" height="10" as="geometry" />
        </mxCell>
        <mxCell id="TU7_M1n6wgSG-8TS7Qtt-9" value="" style="ellipse;whiteSpace=wrap;html=1;strokeColor=#FF0000;fillColor=none;" vertex="1" parent="1">
          <mxGeometry x="288" y="292" width="40" height="10" as="geometry" />
        </mxCell>
      </root>
    </mxGraphModel>
  </diagram>
</mxfile>
